<svg xmlns="http://www.w3.org/2000/svg" version="1.1" xmlns:xlink="http://www.w3.org/1999/xlink" xmlns:svgjs="http://svgjs.dev/svgjs" width="2000" height="1247" viewBox="0 0 2000 1247"><g transform="matrix(1,0,0,1,-1.2121212121212466,0.504858299595071)"><svg viewBox="0 0 396 247" data-background-color="#ffffff" preserveAspectRatio="xMidYMid meet" height="1247" width="2000" xmlns="http://www.w3.org/2000/svg" xmlns:xlink="http://www.w3.org/1999/xlink"><g id="tight-bounds" transform="matrix(1,0,0,1,0.2400000000000091,-0.09999999999999432)"><svg viewBox="0 0 395.52 247.2" height="247.2" width="395.52"><g><svg></svg></g><g><svg viewBox="0 0 395.52 247.2" height="247.2" width="395.52"><mask id="10dfbf87-a446-4e9d-bd60-10a89eae2075"><rect width="640" height="400" fill="white"></rect><g transform="matrix(1,0,0,1,0,46.938161559888584)"><svg viewBox="0 0 395.52 153.32367688022282" height="153.32367688022282" width="395.52"><g><svg viewBox="0 0 395.52 153.32367688022282" height="153.32367688022282" width="395.52"><g><svg viewBox="0 0 395.52 153.32367688022282" height="153.32367688022282" width="395.52"><g><svg viewBox="0 0 395.52 153.32367688022282" height="153.32367688022282" width="395.52"><g id="SvgjsG4401"><svg viewBox="0 0 395.52 153.32367688022282" height="153.32367688022282" width="395.52" id="SvgjsSvg4400"><g><svg viewBox="0 0 395.52 153.32367688022282" height="153.32367688022282" width="395.52"><g transform="matrix(1,0,0,1,0,0)"><svg width="395.52" viewBox="0.1499999999999999 -39.25 108.69999999999999 42.75" height="153.32367688022282" data-palette-color="#ee77a3"><path d="M8.25 0L3.65 0 3.65-15.35Q3.65-18.3 5-20.75 6.35-23.2 8.9-24.65 11.45-26.1 15.05-26.1L15.05-26.1Q16.8-26.1 18.55-25.63 20.3-25.15 21.8-24.03 23.3-22.9 24.2-21L24.2-21 24.25-21Q25.25-22.9 26.75-24.03 28.25-25.15 30-25.63 31.75-26.1 33.55-26.1L33.55-26.1Q37.1-26.1 39.65-24.65 42.2-23.2 43.55-20.75 44.9-18.3 44.9-15.35L44.9-15.35 44.9 0 40.3 0 40.3-15.35Q40.3-17.25 39.4-18.8 38.5-20.35 36.98-21.25 35.45-22.15 33.5-22.15L33.5-22.15Q31.6-22.15 30-21.23 28.4-20.3 27.48-18.78 26.55-17.25 26.55-15.35L26.55-15.35 26.55 0 21.95 0 21.95-15.35Q21.95-17.25 21.03-18.78 20.1-20.3 18.53-21.23 16.95-22.15 15-22.15L15-22.15Q13.1-22.15 11.58-21.25 10.05-20.35 9.15-18.8 8.25-17.25 8.25-15.35L8.25-15.35 8.25 0ZM56.85 0L52.2 0 52.2-25.5 56.85-25.5 56.85 0ZM54.55-29.55L54.55-29.55Q53.3-29.55 52.37-30.48 51.45-31.4 51.45-32.65L51.45-32.65Q51.45-33.9 52.37-34.83 53.3-35.75 54.55-35.75L54.55-35.75Q55.8-35.75 56.72-34.83 57.65-33.9 57.65-32.65L57.65-32.65Q57.65-31.4 56.72-30.48 55.8-29.55 54.55-29.55ZM68.7 0L64.1 0 64.1-15.35Q64.1-18.3 65.45-20.75 66.8-23.2 69.35-24.65 71.9-26.1 75.5-26.1L75.5-26.1Q77.25-26.1 79-25.63 80.75-25.15 82.25-24.03 83.75-22.9 84.65-21L84.65-21 84.7-21Q85.7-22.9 87.2-24.03 88.7-25.15 90.45-25.63 92.2-26.1 94-26.1L94-26.1Q97.55-26.1 100.1-24.65 102.65-23.2 104-20.75 105.35-18.3 105.35-15.35L105.35-15.35 105.35 0 100.75 0 100.75-15.35Q100.75-17.25 99.85-18.8 98.95-20.35 97.42-21.25 95.9-22.15 93.95-22.15L93.95-22.15Q92.05-22.15 90.45-21.23 88.85-20.3 87.92-18.78 87-17.25 87-15.35L87-15.35 87 0 82.4 0 82.4-15.35Q82.4-17.25 81.47-18.78 80.55-20.3 78.97-21.23 77.4-22.15 75.45-22.15L75.45-22.15Q73.55-22.15 72.02-21.25 70.5-20.35 69.6-18.8 68.7-17.25 68.7-15.35L68.7-15.35 68.7 0Z" opacity="1" transform="matrix(1,0,0,1,0,0)" fill="black" class="wordmark-text-0" id="SvgjsPath4399" stroke-width="6" stroke="black" stroke-linejoin="round"></path></svg></g></svg></g></svg></g></svg></g><g></g></svg></g></svg></g></svg></g></mask><g transform="matrix(1,0,0,1,0,46.938161559888584)"><svg viewBox="0 0 395.52 153.32367688022282" height="153.32367688022282" width="395.52"><g><svg viewBox="0 0 395.52 153.32367688022282" height="153.32367688022282" width="395.52"><g><svg viewBox="0 0 395.52 153.32367688022282" height="153.32367688022282" width="395.52"><g><svg viewBox="0 0 395.52 153.32367688022282" height="153.32367688022282" width="395.52"><g id="textblocktransform"><svg viewBox="0 0 395.52 153.32367688022282" height="153.32367688022282" width="395.52" id="textblock"><g><svg viewBox="0 0 395.52 153.32367688022282" height="153.32367688022282" width="395.52"><g transform="matrix(1,0,0,1,0,0)"><svg width="395.52" viewBox="0.1499999999999999 -39.25 108.69999999999999 42.75" height="153.32367688022282" data-palette-color="#ee77a3"><path d="M8.25 0L3.65 0 3.65-15.35Q3.65-18.3 5-20.75 6.35-23.2 8.9-24.65 11.45-26.1 15.05-26.1L15.05-26.1Q16.8-26.1 18.55-25.63 20.3-25.15 21.8-24.03 23.3-22.9 24.2-21L24.2-21 24.25-21Q25.25-22.9 26.75-24.03 28.25-25.15 30-25.63 31.75-26.1 33.55-26.1L33.55-26.1Q37.1-26.1 39.65-24.65 42.2-23.2 43.55-20.75 44.9-18.3 44.9-15.35L44.9-15.35 44.9 0 40.3 0 40.3-15.35Q40.3-17.25 39.4-18.8 38.5-20.35 36.98-21.25 35.45-22.15 33.5-22.15L33.5-22.15Q31.6-22.15 30-21.23 28.4-20.3 27.48-18.78 26.55-17.25 26.55-15.35L26.55-15.35 26.55 0 21.95 0 21.95-15.35Q21.95-17.25 21.03-18.78 20.1-20.3 18.53-21.23 16.95-22.15 15-22.15L15-22.15Q13.1-22.15 11.58-21.25 10.05-20.35 9.15-18.8 8.25-17.25 8.25-15.35L8.25-15.35 8.25 0ZM56.85 0L52.2 0 52.2-25.5 56.85-25.5 56.85 0ZM54.55-29.55L54.55-29.55Q53.3-29.55 52.37-30.48 51.45-31.4 51.45-32.65L51.45-32.65Q51.45-33.9 52.37-34.83 53.3-35.75 54.55-35.75L54.55-35.75Q55.8-35.75 56.72-34.83 57.65-33.9 57.65-32.65L57.65-32.65Q57.65-31.4 56.72-30.48 55.8-29.55 54.55-29.55ZM68.7 0L64.1 0 64.1-15.35Q64.1-18.3 65.45-20.75 66.8-23.2 69.35-24.65 71.9-26.1 75.5-26.1L75.5-26.1Q77.25-26.1 79-25.63 80.75-25.15 82.25-24.03 83.75-22.9 84.65-21L84.65-21 84.7-21Q85.7-22.9 87.2-24.03 88.7-25.15 90.45-25.63 92.2-26.1 94-26.1L94-26.1Q97.55-26.1 100.1-24.65 102.65-23.2 104-20.75 105.35-18.3 105.35-15.35L105.35-15.35 105.35 0 100.75 0 100.75-15.35Q100.75-17.25 99.85-18.8 98.95-20.35 97.42-21.25 95.9-22.15 93.95-22.15L93.95-22.15Q92.05-22.15 90.45-21.23 88.85-20.3 87.92-18.78 87-17.25 87-15.35L87-15.35 87 0 82.4 0 82.4-15.35Q82.4-17.25 81.47-18.78 80.55-20.3 78.97-21.23 77.4-22.15 75.45-22.15L75.45-22.15Q73.55-22.15 72.02-21.25 70.5-20.35 69.6-18.8 68.7-17.25 68.7-15.35L68.7-15.35 68.7 0Z" opacity="1" transform="matrix(1,0,0,1,0,0)" fill="#ee77a3" class="wordmark-text-0" data-fill-palette-color="primary" id="text-0"></path></svg></g></svg></g></svg></g></svg></g><g></g></svg></g></svg></g></svg></g><g mask="url(#10dfbf87-a446-4e9d-bd60-10a89eae2075)"><g transform="matrix(4.558722367858405, 0, 0, 4.558722367858405, 74.79074348820345, 1)"><svg xmlns:x="http://ns.adobe.com/Extensibility/1.0/" xmlns:i="http://ns.adobe.com/AdobeIllustrator/10.0/" xmlns:graph="http://ns.adobe.com/Graphs/1.0/" xmlns="http://www.w3.org/2000/svg" xmlns:xlink="http://www.w3.org/1999/xlink" version="1.1" x="0" y="0" viewBox="5.025 5.107 53.949000000000005 53.787" enable-background="new 0 0 64 64" xml:space="preserve" height="53.787" width="53.949000000000005" class="icon-none" data-fill-palette-color="accent" id="none"><g fill="#ff347f" data-fill-palette-color="accent"><g fill="#ff347f" data-fill-palette-color="accent"><path d="M20.089 31H31v-2.485c-1.248-0.421-2.154-1.588-2.154-2.976s0.906-2.555 2.154-2.976v-2.018c-3.315-0.093-6.525-0.453-9.516-1.047C20.657 22.979 20.159 26.889 20.089 31z" fill="#ff347f" data-fill-palette-color="accent"></path><circle cx="32" cy="25.539" r="1.2" fill="#ff347f" data-fill-palette-color="accent"></circle><path d="M31 18.544V5.107c-3.733 0.741-7.037 5.576-9.009 12.457C24.818 18.117 27.856 18.453 31 18.544z" fill="#ff347f" data-fill-palette-color="accent"></path><path d="M21.553 44.795c3.001-0.525 6.186-0.822 9.447-0.855V33H20.089C20.161 37.226 20.684 41.24 21.553 44.795z" fill="#ff347f" data-fill-palette-color="accent"></path><path d="M39.075 46.404c-0.532 0.99-1.566 1.673-2.768 1.673-1.374 0-2.534-0.89-2.965-2.12-0.113-0.003-0.229-0.004-0.343-0.007v12.943c3.659-0.728 6.907-5.383 8.891-12.046C40.972 46.676 40.032 46.528 39.075 46.404z" fill="#ff347f" data-fill-palette-color="accent"></path><path d="M45.911 33c-0.069 4.462-0.601 8.637-1.5 12.334 3.369 0.785 6.414 1.875 8.905 3.207 3.366-4.327 5.444-9.698 5.658-15.541H45.911z" fill="#ff347f" data-fill-palette-color="accent"></path><path d="M44.583 19.379c0.797 3.517 1.263 7.445 1.328 11.621h13.063c-0.201-5.499-2.055-10.582-5.078-14.769C51.246 17.574 48.077 18.643 44.583 19.379z" fill="#ff347f" data-fill-palette-color="accent"></path><path d="M42.078 17.806C40.115 10.796 36.777 5.857 33 5.107v13.458C36.135 18.552 39.195 18.286 42.078 17.806z" fill="#ff347f" data-fill-palette-color="accent"></path><path d="M44.096 17.442c3.197-0.668 6.091-1.63 8.541-2.826-3.742-4.434-8.882-7.647-14.734-8.958C40.521 8.154 42.682 12.27 44.096 17.442z" fill="#ff347f" data-fill-palette-color="accent"></path><path d="M31 58.894V45.939c-3.084 0.032-6.092 0.306-8.925 0.79C24.056 53.455 27.32 58.162 31 58.894z" fill="#ff347f" data-fill-palette-color="accent"></path><circle cx="12.993" cy="32" r="1.5" fill="#ff347f" data-fill-palette-color="accent"></circle><path d="M20.055 47.107c-3.09 0.662-5.893 1.597-8.277 2.754 3.702 4.187 8.677 7.216 14.315 8.479C23.567 55.934 21.469 52.021 20.055 47.107z" fill="#ff347f" data-fill-palette-color="accent"></path><path d="M9.623 31c0.435-1.458 1.772-2.531 3.37-2.531 1.656 0 3.04 1.15 3.419 2.691 0.151-0.093 0.32-0.16 0.51-0.16h1.166c0.067-4.304 0.562-8.343 1.405-11.941-3.402-0.826-6.459-1.971-8.971-3.396C7.25 19.954 5.236 25.25 5.025 31H9.623z" fill="#ff347f" data-fill-palette-color="accent"></path><path d="M43.898 47.267c-1.413 4.839-3.493 8.692-5.99 11.074 5.528-1.239 10.423-4.173 14.101-8.232C49.722 48.936 46.952 47.973 43.898 47.267z" fill="#ff347f" data-fill-palette-color="accent"></path><path d="M43.911 33H33v10.951c0.107 0.002 0.215 0.003 0.321 0.006 0.411-1.265 1.587-2.188 2.986-2.188 1.571 0 2.867 1.158 3.104 2.663 1.021 0.134 2.023 0.292 3.005 0.479C43.304 41.328 43.839 37.272 43.911 33z" fill="#ff347f" data-fill-palette-color="accent"></path><path d="M42.572 19.746c-3.044 0.518-6.271 0.806-9.572 0.819v1.998c1.248 0.421 2.154 1.588 2.154 2.976S34.248 28.094 33 28.515V31h10.911C43.843 26.986 43.365 23.165 42.572 19.746z" fill="#ff347f" data-fill-palette-color="accent"></path><circle cx="36.308" cy="44.923" r="1.2" fill="#ff347f" data-fill-palette-color="accent"></circle><path d="M18.089 33h-1.166c-0.19 0-0.359-0.067-0.51-0.16-0.379 1.541-1.763 2.691-3.419 2.691-1.598 0-2.936-1.073-3.37-2.531H5.025c0.209 5.72 2.202 10.99 5.443 15.269 2.59-1.312 5.68-2.359 9.081-3.094C18.674 41.518 18.157 37.398 18.089 33z" fill="#ff347f" data-fill-palette-color="accent"></path><path d="M19.991 17.126c1.415-5.024 3.54-9.022 6.105-11.468-5.616 1.258-10.575 4.267-14.272 8.426C14.131 15.349 16.9 16.377 19.991 17.126z" fill="#ff347f" data-fill-palette-color="accent"></path></g></g></svg><g></g></g></g></svg></g><defs></defs></svg><rect width="395.52" height="247.2" fill="none" stroke="none" visibility="hidden"></rect></g></svg></g></svg>